<svg width="256" height="250" viewBox="0 0 256 250" fill="none" xmlns="http://www.w3.org/2000/svg">
<path d="M127.79 0C68.2593 0 20 47.0987 20 105.198C20 163.297 68.2593 210.395 127.79 210.395L128.019 250C183.403 218.536 236.077 176.539 236.077 105.198C236.077 47.0987 187.32 0 127.79 0Z" fill="url(#paint0_linear)"/>
<mask id="mask0" mask-type="alpha" maskUnits="userSpaceOnUse" x="20" y="0" width="217" height="250">
<path d="M127.79 0C68.2593 0 20 47.0987 20 105.198C20 163.297 68.2593 210.395 127.79 210.395L128.019 250C183.403 218.536 236.077 176.539 236.077 105.198C236.077 47.0987 187.32 0 127.79 0Z" fill="white"/>
</mask>
<g mask="url(#mask0)">
<path d="M69.2321 142.298L161.281 237.46L283.302 148.257L195.121 68.9702L176.267 101.279L69.2321 142.298Z" fill="url(#paint1_linear)" fill-opacity="0.21"/>
</g>
<g filter="url(#filter0_d)">
<path d="M66.9208 108.147V137.051C66.9208 144.682 73.1641 150.925 80.7949 150.925H152.565C160.196 150.925 166.439 144.682 166.439 137.051V118.797L194.855 147.212V108.147H66.9208Z" fill="black"/>
</g>
<path d="M66.9208 108.147V137.051C66.9208 144.682 73.1641 150.925 80.7949 150.925H152.565C160.196 150.925 166.439 144.682 166.439 137.051V118.797L194.855 147.212V108.147H66.9208Z" fill="#F6F6F6"/>
<path d="M194.855 108.147V68.9703L166.44 97.3249V79.2424C166.44 71.6114 160.196 65.3683 152.565 65.3683H80.7949C73.1642 65.3683 66.9208 71.6114 66.9208 79.2424V108.147H194.855Z" fill="#E2E2E2"/>
<defs>
<filter id="filter0_d" x="63.9208" y="107.147" width="135.934" height="50.7783" filterUnits="userSpaceOnUse" color-interpolation-filters="sRGB">
<feFlood flood-opacity="0" result="BackgroundImageFix"/>
<feColorMatrix in="SourceAlpha" type="matrix" values="0 0 0 0 0 0 0 0 0 0 0 0 0 0 0 0 0 0 127 0"/>
<feOffset dx="1" dy="3"/>
<feGaussianBlur stdDeviation="2"/>
<feColorMatrix type="matrix" values="0 0 0 0 0 0 0 0 0 0 0 0 0 0 0 0 0 0 0.1 0"/>
<feBlend mode="normal" in2="BackgroundImageFix" result="effect1_dropShadow"/>
<feBlend mode="normal" in="SourceGraphic" in2="effect1_dropShadow" result="shape"/>
</filter>
<linearGradient id="paint0_linear" x1="76.3313" y1="170.106" x2="197.199" y2="65.8864" gradientUnits="userSpaceOnUse">
<stop stop-color="#058D80"/>
<stop offset="1" stop-color="#058D7F"/>
</linearGradient>
<linearGradient id="paint1_linear" x1="133.556" y1="114.972" x2="216.601" y2="231.554" gradientUnits="userSpaceOnUse">
<stop/>
<stop offset="1" stop-color="#D8D8D8" stop-opacity="0"/>
</linearGradient>
</defs>
</svg>
